<?xml version="1.0" encoding="UTF-8" standalone="no"?>
<!-- Created with Inkscape (http://www.inkscape.org/) -->

<svg
   width="1920"
   height="1080"
   viewBox="0 0 508 285.75"
   version="1.1"
   id="svg1"
   inkscape:version="1.4.2 (ebf0e940d0, 2025-05-08)"
   sodipodi:docname="39c3 micro game jam flyer.svg"
   xml:space="preserve"
   inkscape:export-filename="39c3 micro game jam flyer for infobeamer.jpg"
   inkscape:export-xdpi="96"
   inkscape:export-ydpi="96"
   xmlns:inkscape="http://www.inkscape.org/namespaces/inkscape"
   xmlns:sodipodi="http://sodipodi.sourceforge.net/DTD/sodipodi-0.dtd"
   xmlns="http://www.w3.org/2000/svg"
   xmlns:svg="http://www.w3.org/2000/svg"><sodipodi:namedview
     id="namedview1"
     pagecolor="#ffffff"
     bordercolor="#000000"
     borderopacity="0.25"
     inkscape:showpageshadow="2"
     inkscape:pageopacity="0.0"
     inkscape:pagecheckerboard="0"
     inkscape:deskcolor="#d1d1d1"
     inkscape:document-units="mm"
     inkscape:zoom="0.20005806"
     inkscape:cx="974.71706"
     inkscape:cy="434.87376"
     inkscape:window-width="1707"
     inkscape:window-height="995"
     inkscape:window-x="0"
     inkscape:window-y="0"
     inkscape:window-maximized="1"
     inkscape:current-layer="layer1"
     showguides="false"
     showgrid="false"><sodipodi:guide
       position="200.5077,168.2632"
       orientation="1,0"
       id="guide8"
       inkscape:locked="false" /><sodipodi:guide
       position="434.89911,170.12622"
       orientation="1,0"
       id="guide9"
       inkscape:locked="false" /><sodipodi:guide
       position="279.11359,211.82951"
       orientation="0,-1"
       id="guide10"
       inkscape:locked="false" /><inkscape:grid
       id="grid8"
       units="mm"
       originx="0"
       originy="0"
       spacingx="0.26458333"
       spacingy="0.26458333"
       empcolor="#0099e5"
       empopacity="0.30196078"
       color="#0099e5"
       opacity="0.14901961"
       empspacing="5"
       enabled="true"
       visible="false" /></sodipodi:namedview><defs
     id="defs1"><filter
       inkscape:collect="always"
       style="color-interpolation-filters:sRGB"
       id="filter10"
       x="-0.029577902"
       y="-0.10118767"
       width="1.0591558"
       height="1.2023753"><feGaussianBlur
         inkscape:collect="always"
         stdDeviation="2.4722769"
         id="feGaussianBlur10" /></filter><filter
       inkscape:collect="always"
       style="color-interpolation-filters:sRGB"
       id="filter16"
       x="-0.012574189"
       y="-0.043017011"
       width="1.0251484"
       height="1.086034"><feGaussianBlur
         inkscape:collect="always"
         stdDeviation="0.81148411"
         id="feGaussianBlur16" /></filter></defs><g
     inkscape:label="Layer 1"
     inkscape:groupmode="layer"
     id="layer1"><rect
       style="fill:#000000;stroke:none;stroke-width:0.749001;stroke-linecap:round;stroke-linejoin:round;stroke-opacity:0.469775;paint-order:markers fill stroke"
       id="rect1"
       width="508"
       height="285.75"
       x="0"
       y="0"
       sodipodi:insensitive="true" /><g
       id="g10"
       transform="matrix(0.85786534,0,0,0.85786534,27.195282,10.560367)" /><text
       xml:space="preserve"
       style="font-style:normal;font-variant:normal;font-weight:normal;font-stretch:normal;font-size:13.1922px;line-height:1;font-family:'Kario 39C3';-inkscape-font-specification:'Kario 39C3';text-align:start;writing-mode:lr-tb;direction:ltr;text-anchor:start;fill:#00ff00;fill-opacity:1;stroke:none;stroke-width:0.958207;stroke-linecap:round;stroke-linejoin:round;stroke-dasharray:none;stroke-opacity:0.469775;paint-order:markers fill stroke"
       x="493.07358"
       y="258.04572"
       id="text5"><tspan
         sodipodi:role="line"
         style="font-style:normal;font-variant:normal;font-weight:normal;font-stretch:normal;font-size:13.1922px;font-family:'Kario 39C3';-inkscape-font-specification:'Kario 39C3';text-align:end;text-anchor:end;fill:#ffffff;fill-opacity:1;stroke:none;stroke-width:0.958207;stroke-dasharray:none"
         x="493.07358"
         y="258.04572"
         id="tspan6">GODOT ASSEMBLY</tspan><tspan
         sodipodi:role="line"
         style="font-style:normal;font-variant:normal;font-weight:normal;font-stretch:normal;font-size:13.1922px;font-family:'Kario 39C3';-inkscape-font-specification:'Kario 39C3';text-align:end;text-anchor:end;fill:#ffffff;fill-opacity:1;stroke:none;stroke-width:0.958207;stroke-dasharray:none"
         x="493.07358"
         y="271.23792"
         id="tspan7">I4-I5, Saal 3 Foyer, EG</tspan></text><text
       xml:space="preserve"
       style="font-size:38.8056px;line-height:1;font-family:'Officer Sans OT';-inkscape-font-specification:'Officer Sans OT';text-align:start;writing-mode:lr-tb;direction:ltr;text-anchor:start;fill:#00aaff;stroke:#0ff000;stroke-width:2;stroke-linecap:round;stroke-linejoin:round;paint-order:stroke markers fill;font-weight:normal;font-style:normal;font-stretch:normal;font-variant:normal"
       x="199.89262"
       y="176.66858"
       id="text3"><tspan
         sodipodi:role="line"
         id="tspan3"
         style="stroke-width:2;-inkscape-font-specification:'Officer Sans OT';font-family:'Officer Sans OT';font-weight:normal;font-style:normal;font-stretch:normal;font-variant:normal"
         x="199.89262"
         y="176.66858" /></text><g
       id="g9"
       transform="matrix(0.94260281,0,0,0.94260281,-18.616368,8.1884836)"><text
         xml:space="preserve"
         style="font-style:normal;font-variant:normal;font-weight:normal;font-stretch:normal;font-size:19.0614px;line-height:1;font-family:'Kario 39C3';-inkscape-font-specification:'Kario 39C3';text-align:start;writing-mode:lr-tb;direction:ltr;text-anchor:start;fill:#00ff00;fill-opacity:1;stroke:none;stroke-width:1.38451;stroke-linecap:round;stroke-linejoin:round;stroke-dasharray:none;stroke-opacity:0.469775;paint-order:markers fill stroke"
         x="190.61906"
         y="133.00145"
         id="text1"><tspan
           sodipodi:role="line"
           id="tspan1"
           style="font-style:normal;font-variant:normal;font-weight:normal;font-stretch:normal;font-size:19.0614px;font-family:'Kario 39C3';-inkscape-font-specification:'Kario 39C3';fill:#00ff00;fill-opacity:1;stroke:none;stroke-width:1.38451;stroke-dasharray:none"
           x="190.61906"
           y="133.00145">GODOT MICRO GAME JAM</tspan></text><g
         id="g12"
         transform="matrix(2.7493429,0,0,2.7493429,-367.31798,-191.21313)"><g
           fill="#ffffff"
           id="g8"
           transform="matrix(0.10773405,0,0,0.10773405,86.186195,66.01627)"
           style="fill:#00aaff;fill-opacity:1"><path
             d="m 417.61523,76.875 c -42.39203,9.424151 -84.32671,22.54494 -123.64257,42.33398 0.89912,34.71618 3.14362,67.97967 7.69336,101.76758 -15.26846,9.78214 -31.31507,18.17757 -45.57618,29.62891 -14.49005,11.14747 -29.2896,21.81231 -42.41015,34.84961 C 187.46773,268.1178 159.72502,251.82518 131.14453,237.44336 100.33705,270.59856 71.53124,306.38342 48,346.42773 c 18.493057,29.02877 38.32949,58.20569 56.69922,80.95899 v 197.7832 25.1211 22.86132 c 0.44956,0.004 0.89835,0.0209 1.34375,0.0625 l 150.66992,14.52735 c 7.89231,0.76176 14.07749,7.11448 14.62695,15.02343 l 4.64649,66.50977 131.42969,9.37891 9.05468,-61.38672 c 1.17386,-7.95891 8.00029,-13.85742 16.05078,-13.85742 h 158.96094 c 8.04633,0 14.87302,5.89851 16.04688,13.85742 l 9.05468,61.38672 131.4336,-9.37891 4.64258,-66.50977 c 0.55362,-7.90895 6.73464,-14.25751 14.62695,-15.02343 l 150.61133,-14.52735 c 0.4454,-0.0416 0.89028,-0.0583 1.33984,-0.0625 v -19.61132 l 0.0625,-0.0195 v -226.1348 c 21.2165,-26.70928 41.30684,-56.1715 56.69922,-80.95899 -23.52291,-40.04431 -52.34486,-75.82917 -83.15234,-108.98437 -28.57217,14.38182 -56.32515,30.67444 -82.53711,48.01172 -13.11639,-13.0373 -27.88953,-23.70214 -42.40039,-34.84961 -14.25695,-11.45134 -30.32318,-19.84677 -45.5625,-29.62891 4.53724,-33.78791 6.7803,-67.0514 7.68359,-101.76758 C 690.71123,99.41994 648.78198,86.299151 606.36914,76.875 c -16.9335,28.45977 -32.41939,59.27922 -45.90625,89.4082 -15.99275,-2.67239 -32.05995,-3.66203 -48.14844,-3.85351 v -0.0254 c -0.11239,0 -0.21676,0.0254 -0.3125,0.0254 -0.0999,0 -0.20478,-0.0254 -0.30468,-0.0254 v 0.0254 c -16.11763,0.19148 -32.17106,1.18112 -48.16797,3.85351 C 450.05076,136.15422 434.57371,105.33477 417.61523,76.875 Z M 298.41602,436.39844 c 50.15113,0 90.79882,40.61746 90.79882,90.75195 0,50.16779 -40.64769,90.80859 -90.79882,90.80859 -50.12617,0 -90.78711,-40.6408 -90.78711,-90.80859 0,-50.13449 40.66094,-90.75195 90.78711,-90.75195 z m 427.17773,0 c 50.122,0 90.7793,40.61746 90.7793,90.75195 0,50.16779 -40.6573,90.80859 -90.7793,90.80859 -50.15946,0 -90.80664,-40.6408 -90.80664,-90.80859 0,-50.13449 40.64718,-90.75195 90.80664,-90.75195 z m -213.59961,53.10937 c 16.14261,0 29.25391,11.90816 29.25391,26.56055 v 83.58984 c 0,14.66488 -13.1113,26.5625 -29.25391,26.5625 -16.1426,0 -29.22656,-11.89762 -29.22656,-26.5625 v -83.58984 c 0,-14.65239 13.08396,-26.56055 29.22656,-26.56055 z"
             stroke-width="4.16261"
             id="path5"
             style="fill:#00aaff;fill-opacity:1" /><path
             d="m 0,0 -1.121,-16.063 c -0.135,-1.936 -1.675,-3.477 -3.611,-3.616 l -38.555,-2.751 c -0.094,-0.007 -0.188,-0.01 -0.281,-0.01 -1.916,0 -3.569,1.406 -3.852,3.33 l -2.211,14.994 H -81.09 l -2.211,-14.994 c -0.297,-2.018 -2.101,-3.469 -4.133,-3.32 l -38.555,2.751 c -1.936,0.139 -3.476,1.68 -3.611,3.616 L -130.721,0 -163.268,3.138 c 0.015,-3.498 0.06,-7.33 0.06,-8.093 0,-34.374 43.605,-50.896 97.781,-51.086 h 0.066 0.067 c 54.176,0.19 97.766,16.712 97.766,51.086 0,0.777 0.047,4.593 0.063,8.093 z"
             transform="matrix(4.162611,0,0,-4.162611,784.07144,718.72312)"
             id="path6"
             style="fill:#00aaff;fill-opacity:1" /><path
             d="m 0,0 c 0,-7.994 -6.479,-14.473 -14.479,-14.473 -7.996,0 -14.479,6.479 -14.479,14.473 0,7.994 6.483,14.479 14.479,14.479 C -6.479,14.479 0,7.994 0,0"
             transform="matrix(4.162611,0,0,-4.162611,367.36686,532.53707)"
             id="path7"
             style="fill:#00aaff;fill-opacity:1" /><path
             d="m 0,0 c 0,-7.994 6.477,-14.473 14.471,-14.473 8.002,0 14.479,6.479 14.479,14.473 0,7.994 -6.477,14.479 -14.479,14.479 C 6.477,14.479 0,7.994 0,0"
             transform="matrix(4.162611,0,0,-4.162611,656.64056,532.53707)"
             id="path8"
             style="fill:#00aaff;fill-opacity:1" /></g><g
           fill="#ffffff"
           id="g4"
           transform="matrix(0.10095069,0,0,0.10095069,89.659275,71.927402)"
           style="fill:#000000;fill-opacity:1"><path
             d="m 417.61523,76.875 c -42.39203,9.424151 -84.32671,22.54494 -123.64257,42.33398 0.89912,34.71618 3.14362,67.97967 7.69336,101.76758 -15.26846,9.78214 -31.31507,18.17757 -45.57618,29.62891 -14.49005,11.14747 -29.2896,21.81231 -42.41015,34.84961 C 187.46773,268.1178 159.72502,251.82518 131.14453,237.44336 100.33705,270.59856 71.53124,306.38342 48,346.42773 c 18.493057,29.02877 38.32949,58.20569 56.69922,80.95899 v 197.7832 25.1211 22.86132 c 0.44956,0.004 0.89835,0.0209 1.34375,0.0625 l 150.66992,14.52735 c 7.89231,0.76176 14.07749,7.11448 14.62695,15.02343 l 4.64649,66.50977 131.42969,9.37891 9.05468,-61.38672 c 1.17386,-7.95891 8.00029,-13.85742 16.05078,-13.85742 h 158.96094 c 8.04633,0 14.87302,5.89851 16.04688,13.85742 l 9.05468,61.38672 131.4336,-9.37891 4.64258,-66.50977 c 0.55362,-7.90895 6.73464,-14.25751 14.62695,-15.02343 l 150.61133,-14.52735 c 0.4454,-0.0416 0.89028,-0.0583 1.33984,-0.0625 v -19.61132 l 0.0625,-0.0195 v -226.1348 c 21.2165,-26.70928 41.30684,-56.1715 56.69922,-80.95899 -23.52291,-40.04431 -52.34486,-75.82917 -83.15234,-108.98437 -28.57217,14.38182 -56.32515,30.67444 -82.53711,48.01172 -13.11639,-13.0373 -27.88953,-23.70214 -42.40039,-34.84961 -14.25695,-11.45134 -30.32318,-19.84677 -45.5625,-29.62891 4.53724,-33.78791 6.7803,-67.0514 7.68359,-101.76758 C 690.71123,99.41994 648.78198,86.299151 606.36914,76.875 c -16.9335,28.45977 -32.41939,59.27922 -45.90625,89.4082 -15.99275,-2.67239 -32.05995,-3.66203 -48.14844,-3.85351 v -0.0254 c -0.11239,0 -0.21676,0.0254 -0.3125,0.0254 -0.0999,0 -0.20478,-0.0254 -0.30468,-0.0254 v 0.0254 c -16.11763,0.19148 -32.17106,1.18112 -48.16797,3.85351 C 450.05076,136.15422 434.57371,105.33477 417.61523,76.875 Z M 298.41602,436.39844 c 50.15113,0 90.79882,40.61746 90.79882,90.75195 0,50.16779 -40.64769,90.80859 -90.79882,90.80859 -50.12617,0 -90.78711,-40.6408 -90.78711,-90.80859 0,-50.13449 40.66094,-90.75195 90.78711,-90.75195 z m 427.17773,0 c 50.122,0 90.7793,40.61746 90.7793,90.75195 0,50.16779 -40.6573,90.80859 -90.7793,90.80859 -50.15946,0 -90.80664,-40.6408 -90.80664,-90.80859 0,-50.13449 40.64718,-90.75195 90.80664,-90.75195 z m -213.59961,53.10937 c 16.14261,0 29.25391,11.90816 29.25391,26.56055 v 83.58984 c 0,14.66488 -13.1113,26.5625 -29.25391,26.5625 -16.1426,0 -29.22656,-11.89762 -29.22656,-26.5625 v -83.58984 c 0,-14.65239 13.08396,-26.56055 29.22656,-26.56055 z"
             stroke-width="4.16261"
             id="path1"
             style="fill:#000000;fill-opacity:1" /><path
             d="m 0,0 -1.121,-16.063 c -0.135,-1.936 -1.675,-3.477 -3.611,-3.616 l -38.555,-2.751 c -0.094,-0.007 -0.188,-0.01 -0.281,-0.01 -1.916,0 -3.569,1.406 -3.852,3.33 l -2.211,14.994 H -81.09 l -2.211,-14.994 c -0.297,-2.018 -2.101,-3.469 -4.133,-3.32 l -38.555,2.751 c -1.936,0.139 -3.476,1.68 -3.611,3.616 L -130.721,0 -163.268,3.138 c 0.015,-3.498 0.06,-7.33 0.06,-8.093 0,-34.374 43.605,-50.896 97.781,-51.086 h 0.066 0.067 c 54.176,0.19 97.766,16.712 97.766,51.086 0,0.777 0.047,4.593 0.063,8.093 z"
             transform="matrix(4.162611,0,0,-4.162611,784.07144,718.72312)"
             id="path2"
             style="fill:#000000;fill-opacity:1" /><path
             d="m 0,0 c 0,-7.994 -6.479,-14.473 -14.479,-14.473 -7.996,0 -14.479,6.479 -14.479,14.473 0,7.994 6.483,14.479 14.479,14.479 C -6.479,14.479 0,7.994 0,0"
             transform="matrix(4.162611,0,0,-4.162611,367.36686,532.53707)"
             id="path3"
             style="fill:#000000;fill-opacity:1" /><path
             d="m 0,0 c 0,-7.994 6.477,-14.473 14.471,-14.473 8.002,0 14.479,6.479 14.479,14.473 0,7.994 -6.477,14.479 -14.479,14.479 C 6.477,14.479 0,7.994 0,0"
             transform="matrix(4.162611,0,0,-4.162611,656.64056,532.53707)"
             id="path4"
             style="fill:#000000;fill-opacity:1" /></g></g><text
         xml:space="preserve"
         style="font-style:normal;font-variant:normal;font-weight:normal;font-stretch:normal;font-size:94.9042px;line-height:1;font-family:'Kario 39C3';-inkscape-font-specification:'Kario 39C3';text-align:start;writing-mode:lr-tb;direction:ltr;text-anchor:start;fill:#000000;fill-opacity:1;stroke:#0ff000;stroke-width:2;stroke-linecap:round;stroke-linejoin:round;stroke-dasharray:none;stroke-opacity:1;paint-order:stroke markers fill"
         x="189.55045"
         y="107.83229"
         id="text2"><tspan
           sodipodi:role="line"
           id="tspan2"
           style="font-style:normal;font-variant:normal;font-weight:normal;font-stretch:normal;font-size:94.9042px;font-family:'Kario 39C3';-inkscape-font-specification:'Kario 39C3';fill:#000000;fill-opacity:1;stroke:#0ff000;stroke-width:2;stroke-dasharray:none;stroke-opacity:1;paint-order:stroke markers fill"
           x="189.55045"
           y="107.83229">39C3</tspan></text><text
         xml:space="preserve"
         style="font-style:normal;font-variant:normal;font-weight:normal;font-stretch:normal;font-size:94.9042px;line-height:1;font-family:'Kario 39C3';-inkscape-font-specification:'Kario 39C3';text-align:start;writing-mode:lr-tb;direction:ltr;text-anchor:start;mix-blend-mode:lighten;fill:#000000;fill-opacity:1;stroke:#0ff000;stroke-width:2;stroke-linecap:round;stroke-linejoin:round;stroke-dasharray:none;stroke-opacity:1;paint-order:stroke markers fill;filter:url(#filter10)"
         x="189.55045"
         y="107.83229"
         id="text10"><tspan
           sodipodi:role="line"
           id="tspan10"
           style="font-style:normal;font-variant:normal;font-weight:normal;font-stretch:normal;font-size:94.9042px;font-family:'Kario 39C3';-inkscape-font-specification:'Kario 39C3';fill:#000000;fill-opacity:1;stroke:#0ff000;stroke-width:2;stroke-dasharray:none;stroke-opacity:1;paint-order:stroke markers fill"
           x="189.55045"
           y="107.83229">39C3</tspan></text><text
         xml:space="preserve"
         style="font-style:normal;font-variant:normal;font-weight:normal;font-stretch:normal;font-size:94.9042px;line-height:1;font-family:'Kario 39C3';-inkscape-font-specification:'Kario 39C3';text-align:start;writing-mode:lr-tb;direction:ltr;text-anchor:start;mix-blend-mode:lighten;fill:#000000;fill-opacity:1;stroke:#0ff000;stroke-width:2;stroke-linecap:round;stroke-linejoin:round;stroke-dasharray:none;stroke-opacity:1;paint-order:stroke markers fill;filter:url(#filter16)"
         x="189.55045"
         y="107.83229"
         id="text11"><tspan
           sodipodi:role="line"
           id="tspan11"
           style="font-style:normal;font-variant:normal;font-weight:normal;font-stretch:normal;font-size:94.9042px;font-family:'Kario 39C3';-inkscape-font-specification:'Kario 39C3';fill:#000000;fill-opacity:1;stroke:#0ff000;stroke-width:2;stroke-dasharray:none;stroke-opacity:1;paint-order:stroke markers fill"
           x="189.55045"
           y="107.83229">39C3</tspan></text><text
         xml:space="preserve"
         style="font-style:normal;font-variant:normal;font-weight:normal;font-stretch:normal;font-size:94.9042px;line-height:1;font-family:'Kario 39C3';-inkscape-font-specification:'Kario 39C3';text-align:start;writing-mode:lr-tb;direction:ltr;text-anchor:start;mix-blend-mode:lighten;fill:#000000;fill-opacity:1;stroke:#0ff000;stroke-width:2;stroke-linecap:round;stroke-linejoin:round;stroke-dasharray:none;stroke-opacity:1;paint-order:stroke markers fill;filter:url(#filter16)"
         x="189.55045"
         y="107.83229"
         id="text16"><tspan
           sodipodi:role="line"
           id="tspan16"
           style="font-style:normal;font-variant:normal;font-weight:normal;font-stretch:normal;font-size:94.9042px;font-family:'Kario 39C3';-inkscape-font-specification:'Kario 39C3';fill:#000000;fill-opacity:1;stroke:#0ff000;stroke-width:2;stroke-dasharray:none;stroke-opacity:1;paint-order:stroke markers fill"
           x="189.55045"
           y="107.83229">39C3</tspan></text><text
         xml:space="preserve"
         style="font-style:normal;font-variant:normal;font-weight:normal;font-stretch:normal;font-size:17.5835px;line-height:1;font-family:'Officer Sans OT';-inkscape-font-specification:'Officer Sans OT';text-align:start;writing-mode:lr-tb;direction:ltr;text-anchor:start;white-space:pre;inline-size:234.427;display:inline;fill:#00aaff;stroke:#0ff000;stroke-width:0.906235;stroke-linecap:round;stroke-linejoin:round;paint-order:stroke markers fill"
         x="190.90912"
         y="172.24026"
         id="text4"
         transform="translate(0,-10.765223)"><tspan
           x="190.90912"
           y="172.24026"
           id="tspan9"><tspan
             style="font-size:14.8167px;fill:#ffffff;stroke:none"
             id="tspan5">Join us and make a 
</tspan></tspan><tspan
           x="190.90912"
           y="189.82376"
           id="tspan15"><tspan
             style="font-size:14.8167px;fill:#ffffff;stroke:none"
             id="tspan13">WarioWare-style micro game!
</tspan></tspan><tspan
           x="190.90912"
           y="207.40726"
           id="tspan18"><tspan
             style="font-size:14.8167px;fill:#ffffff;stroke:none"
             id="tspan17">
</tspan></tspan><tspan
           x="190.90912"
           y="224.99075"
           id="tspan24"><tspan
             style="fill:#ffffff;stroke:none"
             id="tspan22">Just submit a PR on GitHub:</tspan><tspan
             style="font-size:14.8167px"
             id="tspan23">
</tspan></tspan><tspan
           x="190.90912"
           y="242.57425"
           id="tspan27"><tspan
             style="font-size:14.8167px;stroke:none"
             id="tspan25">e-cathy/micro-game-jam-at-39c3</tspan><tspan
             style="fill:#0ff00f"
             id="tspan26">
</tspan></tspan></text></g></g></svg>
